<svg width="48" height="48" viewBox="0 0 48 48" fill="none" xmlns="http://www.w3.org/2000/svg">
<circle cx="24" cy="24" r="24" fill="#F3F3F3"/>
<g clip-path="url(#clip0_3_29385)">
<path d="M34.6775 24.5284L31.7411 23.1744C31.3816 23.0085 30.9654 23.0192 30.6144 23.2029C30.2361 23.4011 30.1961 23.927 30.5399 24.1802L33.7685 26.5568L33.7741 26.5438C33.8974 26.6038 34.0531 26.593 34.223 26.4948C34.6206 26.2653 34.9431 25.6494 34.9431 25.1191C34.9431 24.819 34.8395 24.6108 34.6775 24.5284Z" fill="#EDEDED"/>
<path d="M36.8713 19.7451L35.6783 19.3947C35.3985 19.3125 35.0978 19.3422 34.8396 19.4776C34.3781 19.7193 34.3131 20.3536 34.7155 20.6842L36.0864 21.8099L36.0922 21.7971C36.2153 21.8571 36.3712 21.8461 36.5411 21.7479C36.9387 21.5184 37.261 20.9025 37.261 20.3724C37.261 20.0012 37.1025 19.7712 36.8713 19.7451Z" fill="#EDEDED"/>
<path d="M21.3018 20.5767L23.3741 17.0336L22.6197 16.5981L18.4321 18.4062L21.3018 20.5767Z" fill="#D35454"/>
<path d="M32.3372 28.2658L36.7016 18.0833L35.5898 17.4507L28.2959 25.3596L32.3372 28.2658Z" fill="#D35454"/>
<path d="M35.1665 29.2473L37.5431 32.6807C37.862 33.1415 37.7195 33.7766 37.234 34.0568C36.3917 34.5432 35.4023 34.7097 34.4471 34.5258C34.4349 34.5235 34.4228 34.5212 34.4109 34.5189C32.8205 34.2073 31.3341 33.5004 30.0437 32.5202L22.7086 26.9479C19.834 24.7643 17.602 21.8453 16.2483 18.4989L16.2112 18.4079C16.1543 18.2669 16.125 18.116 16.125 17.9639C16.125 17.5227 16.6025 17.2471 16.9844 17.4679L31.4611 25.8366C32.9337 26.6849 34.1993 27.8499 35.1665 29.2473Z" fill="#DE6F6F"/>
<path d="M36.4293 31.0694C35.9859 31.4155 35.4699 31.6568 34.9197 31.775C33.8567 32.0038 32.7471 31.8598 31.7776 31.3672L31.032 30.9882L25.6029 27.8537C22.9352 26.3135 20.4738 24.4408 18.2778 22.2808C19.4901 24.057 20.9832 25.6361 22.7104 26.9482L30.0455 32.5204C31.3359 33.5006 32.8223 34.2075 34.4127 34.5191C34.4248 34.5214 34.4369 34.5239 34.4489 34.5262C35.4042 34.71 36.3936 34.5436 37.2358 34.0571C37.7213 33.7769 37.8638 33.1419 37.5449 32.6809L36.4293 31.0694Z" fill="#AC3C3C"/>
<path d="M29.32 30.3998L12.3969 31.1356L10.2856 29.744L23.2859 26.916L29.32 30.3998Z" fill="#DE6F6F"/>
<path d="M17.2174 17.8595L16.125 13.3926L18.2689 14.7036L20.5084 19.8044L17.2174 17.8595Z" fill="#AC3C3C"/>
<path d="M20.1134 21.3028L13.3461 20.5769L12.1807 19.8995L16.7878 19.3828L20.1134 21.3028Z" fill="#DE6F6F"/>
<path d="M35.1534 29.2277C35.153 29.2275 35.1528 29.2275 35.1526 29.2275L32.7375 30.4342C32.4604 30.5727 32.131 30.5559 31.8693 30.3904C31.6485 30.2508 31.3557 30.3331 31.2398 30.567C31.1628 30.7225 31.2262 30.9106 31.3815 30.9879C31.9536 31.2716 32.6264 31.2672 33.1947 30.9761L35.5343 29.7779L35.1534 29.2277Z" fill="white"/>
<path d="M30.3357 30.5156L30.3823 30.5426C30.5556 30.6426 30.696 30.5363 30.696 30.3055V30.0414C30.696 29.8104 30.5556 29.5421 30.3823 29.4421L30.3357 29.4151C30.1624 29.3151 30.022 29.4212 30.022 29.6522V29.9163C30.022 30.1473 30.1624 30.4156 30.3357 30.5156Z" fill="white"/>
<path d="M29.2976 29.9141L29.3442 29.941C29.5175 30.0411 29.6579 29.935 29.6579 29.704V29.4399C29.6579 29.2088 29.5175 28.9406 29.3442 28.8405L29.2976 28.8135C29.1243 28.7135 28.9839 28.8196 28.9839 29.0506V29.3147C28.9839 29.5457 29.1243 29.814 29.2976 29.9141Z" fill="white"/>
<path d="M28.2732 29.313L28.32 29.34C28.4933 29.44 28.6337 29.3339 28.6337 29.1029V28.8388C28.6337 28.6078 28.4933 28.3395 28.32 28.2395L28.2732 28.2125C28.0999 28.1124 27.9595 28.2185 27.9595 28.4496V28.7136C27.9595 28.9447 28.0999 29.213 28.2732 29.313Z" fill="white"/>
<path d="M27.2351 28.7114L27.2819 28.7384C27.455 28.8384 27.5956 28.7323 27.5956 28.5013V28.2372C27.5956 28.0062 27.4552 27.7379 27.2819 27.6379L27.2351 27.6109C27.0618 27.5109 26.9214 27.617 26.9214 27.848V28.1121C26.9214 28.3431 27.0618 28.6114 27.2351 28.7114Z" fill="white"/>
</g>
<defs>
<clipPath id="clip0_3_29385">
<rect width="27.4286" height="27.4286" fill="white" transform="translate(10.2852 10.2852)"/>
</clipPath>
</defs>
</svg>
