<svg width="48" height="48" viewBox="0 0 48 48" fill="none" xmlns="http://www.w3.org/2000/svg">
<circle cx="24" cy="24" r="24" fill="#F3F3F3"/>
<g clip-path="url(#clip0_3_29468)">
<path d="M35.3717 27.4445L27.9061 23.1394C27.1579 22.7079 26.2365 22.7081 25.4885 23.14L13.6062 30.0002C13.4248 30.1051 13.3308 30.2845 13.3222 30.4674L13.3203 30.4676V31.8795H13.3205C13.3215 32.0711 13.4167 32.2622 13.6064 32.3716L21.0718 36.6767C21.82 37.1082 22.7414 37.108 23.4894 36.6761L35.3719 29.8159C35.5536 29.7108 35.6475 29.5308 35.6559 29.3472L35.6576 29.347V27.9591L35.6564 27.9593C35.6632 27.7603 35.5688 27.5582 35.3717 27.4445Z" fill="#AC3C3C"/>
<path d="M35.3719 28.4346L23.4893 35.2948C22.7414 35.7266 21.82 35.727 21.0718 35.2954L13.6064 30.9904C13.2251 30.7706 13.2249 30.2202 13.606 30.0002L25.4885 23.14C26.2365 22.7082 27.1579 22.7078 27.906 23.1394L35.3714 27.4444C35.7529 27.6642 35.7529 28.2144 35.3719 28.4346Z" fill="#DE6F6F"/>
<path d="M31.5345 13.5579C31.5143 13.363 31.408 13.1755 31.2142 13.0637L26.2592 10.2029C25.7906 9.93238 25.2134 9.93238 24.7448 10.2029L16.4441 14.9953C16.2278 15.1201 16.1196 15.3389 16.1196 15.5574V29.7592C16.1196 29.9778 16.2278 30.1963 16.4441 30.3212L21.399 33.182C21.8677 33.4525 22.4449 33.4525 22.9135 33.182L31.2142 28.3896C31.4529 28.2518 31.5596 27.9998 31.5349 27.7596L31.5345 13.5579Z" fill="#D35454"/>
<path d="M24.1385 33.9541C23.8468 33.9541 23.6104 33.7176 23.6104 33.4258V28.3983C23.6104 28.1066 23.8468 27.8701 24.1385 27.8701C24.4302 27.8701 24.6667 28.1066 24.6667 28.3983V33.4258C24.6667 33.7176 24.4302 33.9541 24.1385 33.9541Z" fill="#AC3C3C"/>
<path d="M31.2554 29.8465C30.9635 29.8465 30.7271 29.61 30.7271 29.3183V24.2909C30.7271 23.9992 30.9635 23.7627 31.2554 23.7627C31.5471 23.7627 31.7836 23.9992 31.7836 24.2909V29.3183C31.7836 29.61 31.5471 29.8465 31.2554 29.8465Z" fill="#AC3C3C"/>
<path d="M16.1196 23.3125V29.7595C16.1196 29.978 16.2278 30.1966 16.4441 30.3214L21.399 33.1823V26.7353L16.4441 23.8744C16.2278 23.7496 16.1196 23.5311 16.1196 23.3125Z" fill="#AC3C3C"/>
<path d="M31.5349 13.5649V13.5579H31.5345C31.5143 13.3628 31.408 13.1755 31.2142 13.0635L26.2592 10.2029C25.7906 9.93238 25.2134 9.93238 24.7448 10.2029L16.4441 14.9953C16.2278 15.1201 16.1196 15.3389 16.1196 15.5574V22.0044C16.1196 22.223 16.2278 22.4415 16.4441 22.5664L21.399 25.4272C21.8677 25.6977 22.4449 25.6977 22.9135 25.4272L31.2142 20.6348C31.4529 20.4969 31.5596 20.245 31.5349 20.0048C31.5349 20.0048 31.5386 13.6054 31.5349 13.5649Z" fill="#D35454"/>
<path d="M28.7331 29.8236L26.7314 30.9793V28.3294C26.7314 28.1312 26.8517 27.9011 27.0005 27.8154L28.4641 26.9702C28.6126 26.8845 28.7331 26.9756 28.7331 27.1737V29.8236Z" fill="white"/>
<path d="M31.2142 14.1878L22.9135 18.9802C22.4449 19.2507 21.8677 19.2507 21.399 18.9802L16.4441 16.1194C16.0115 15.8697 16.0115 15.2452 16.4441 14.9953L24.7448 10.2029C25.2134 9.93238 25.7906 9.93238 26.2592 10.2029L31.2142 13.0637C31.6468 13.3133 31.6468 13.9379 31.2142 14.1878Z" fill="#DE6F6F"/>
<path d="M16.1196 15.5576V22.0044C16.1196 22.2231 16.2278 22.4417 16.4441 22.5665L21.399 25.4272V18.9804L16.4441 16.1196C16.2278 15.9947 16.1196 15.7762 16.1196 15.5576Z" fill="#AC3C3C"/>
<path d="M25.5016 11.125C25.5698 11.125 25.6371 11.1431 25.6963 11.1773L29.9373 13.6258L22.3505 18.006C22.2916 18.0402 22.2243 18.0581 22.1559 18.0581C22.0877 18.0581 22.0203 18.0402 21.9612 18.006L17.7202 15.5576L25.3069 11.1773C25.3661 11.1431 25.4334 11.125 25.5016 11.125Z" fill="#D35454"/>
<path d="M24.4237 28.8587C24.3337 28.8587 24.2428 28.8303 24.1658 28.7712C23.9794 28.6286 23.9439 28.3619 24.0865 28.1754L28.5089 22.394L31.9292 23.8547C32.1451 23.9468 32.2457 24.1965 32.1538 24.4124C32.0617 24.628 31.8118 24.7286 31.5962 24.6367L28.7831 23.4347L24.7615 28.6921C24.6779 28.8015 24.5516 28.8587 24.4237 28.8587Z" fill="#AC3C3C"/>
<path d="M31.5967 24.6367L28.7836 23.4346L24.762 28.6919C24.7344 28.7282 24.7017 28.7581 24.666 28.7826L31.7314 24.6691C31.6863 24.6658 31.6407 24.6555 31.5967 24.6367Z" fill="#DE6F6F"/>
<path d="M24.1661 28.7711C23.9797 28.6286 23.9442 28.3618 24.0868 28.1754L28.5095 22.3938C28.5095 22.3938 31.9452 23.8621 31.9528 23.866L30.4514 22.78C30.4491 22.7786 27.0228 21.3062 27.0228 21.3062L22.6001 27.0876C22.4576 27.274 22.493 27.5407 22.6794 27.6833L24.1661 28.7711Z" fill="#AC3C3C"/>
<path d="M18.997 19.2128L18.1662 18.731C17.9994 18.6348 17.8643 18.737 17.8643 18.9595V21.3898C17.8643 21.6122 17.9994 21.8708 18.1662 21.967L18.997 22.4488C19.1639 22.545 19.2992 22.4428 19.2992 22.2203V19.79C19.2992 19.5676 19.1639 19.309 18.997 19.2128Z" fill="white"/>
<path d="M18.997 26.9925L18.1662 26.5109C17.9994 26.4145 17.8643 26.5167 17.8643 26.7392V29.1695C17.8643 29.3919 17.9994 29.6505 18.1662 29.7467L18.997 30.2285C19.1639 30.3247 19.2992 30.2225 19.2992 30V27.5697C19.2992 27.3473 19.1639 27.0889 18.997 26.9925Z" fill="white"/>
</g>
<defs>
<clipPath id="clip0_3_29468">
<rect width="27" height="27" fill="white" transform="translate(11 10)"/>
</clipPath>
</defs>
</svg>
