<svg width="48" height="48" viewBox="0 0 48 48" fill="none" xmlns="http://www.w3.org/2000/svg">
<circle cx="24" cy="24" r="24" fill="#F3F3F3"/>
<g clip-path="url(#clip0_3_29501)">
<path d="M35.0538 30.8238L32.6251 29.4216C32.6138 29.4149 32.6027 29.4075 32.5917 29.401C32.5795 29.3941 32.5676 29.3881 32.5557 29.3814L26.5684 25.9248L26.5538 25.9333V16.4372L28.0906 15.5767L19.6925 10.7237C18.7031 10.1411 17.4759 10.1388 16.4844 10.718C15.4176 11.3412 14.5287 12.2279 13.9026 13.2928L12.9106 14.9801L14.4475 15.8674V28.0362L15.6633 28.7381L16.424 28.2991V28.1635C16.469 28.1766 16.5135 28.1944 16.5571 28.2195L20.2865 30.3727C20.8396 30.692 21.1795 31.283 21.1774 31.9216L29.3114 36.6179L32.1352 34.9878C32.4726 35.0934 32.7771 35.0587 33.0217 34.9028L33.8359 34.4232C33.8368 34.4227 33.8376 34.4223 33.8382 34.4219L33.8384 34.4217C34.0601 34.2809 34.2321 34.0406 34.3354 33.7173L35.0538 33.3026V30.8238Z" fill="#D35454"/>
<path d="M20.5229 31.1037C20.5229 29.7387 19.6929 28.1529 18.6692 27.5617C18.1923 27.2863 17.7575 27.2756 17.4291 27.4805L17.4289 27.4803L16.6699 27.9283C16.2593 28.1447 15.9976 28.6785 15.9976 29.4449C15.9976 30.8099 16.8275 32.3957 17.8514 32.9869C18.3254 33.2606 18.7577 33.2725 19.0857 33.0714L19.0861 33.0712C19.0903 33.0687 19.0949 33.0662 19.099 33.0634L19.9137 32.5836C19.9143 32.5832 19.9152 32.583 19.9158 32.5826L19.916 32.5823C20.2889 32.3455 20.5229 31.8286 20.5229 31.1037Z" fill="#790D0D"/>
<path d="M19.7053 31.5853C19.7053 32.9503 18.8751 33.5779 17.8514 32.9867C16.8275 32.3955 15.9976 30.8097 15.9976 29.4447C15.9976 28.0797 16.8275 27.4521 17.8514 28.0433C18.8751 28.6344 19.7053 30.2202 19.7053 31.5853Z" fill="#AC3C3C"/>
<path d="M19.2427 31.3181C19.2427 32.3429 18.6198 32.8137 17.8514 32.3701C17.0829 31.9265 16.46 30.7362 16.46 29.7114C16.46 28.6869 17.0829 28.216 17.8514 28.6596C18.6198 29.1033 19.2427 30.2936 19.2427 31.3181Z" fill="#890F0F"/>
<path d="M24.4404 33.3449C24.4404 31.9799 23.6104 30.3941 22.5867 29.8029C22.1098 29.5275 21.6749 29.5169 21.3466 29.7217L21.3464 29.7215L20.5874 30.1695C20.1768 30.3859 19.915 30.9198 19.915 31.6861C19.915 33.0511 20.745 34.6369 21.7689 35.2281C22.2496 35.5055 22.6874 35.5145 23.0167 35.3047L23.8297 34.8259C23.831 34.825 23.8322 34.8244 23.8335 34.8236H23.8337C24.2064 34.5867 24.4404 34.0698 24.4404 33.3449Z" fill="#790D0D"/>
<path d="M23.6228 33.8271C23.6228 35.1921 22.7926 35.8195 21.7689 35.2285C20.7452 34.6374 19.915 33.0516 19.915 31.6863C19.915 30.3213 20.7452 29.6939 21.7689 30.2849C22.7928 30.8761 23.6228 32.4619 23.6228 33.8271Z" fill="#AC3C3C"/>
<path d="M23.1602 33.56C23.1602 34.5846 22.5372 35.0556 21.7688 34.612C21.0004 34.1681 20.3774 32.978 20.3774 31.9533C20.3774 30.9287 21.0004 30.4577 21.7688 30.9013C22.5372 31.345 23.1602 32.5352 23.1602 33.56Z" fill="#890F0F"/>
<path d="M26.5074 32.0661C26.0305 31.7907 25.5958 31.78 25.2673 31.9849V31.9847L24.5081 32.4327V32.4329C24.0975 32.6491 23.8359 33.1829 23.8359 33.9493C23.8359 35.3145 24.6659 36.9003 25.6896 37.4915C26.1638 37.765 26.5961 37.7771 26.9238 37.576C26.9284 37.5733 26.933 37.5708 26.9374 37.568L27.7502 37.0893C27.7517 37.0884 27.7529 37.0878 27.7542 37.087H27.7544C28.1271 36.8501 28.3613 36.3332 28.3613 35.6083C28.3613 34.2431 27.5313 32.6573 26.5074 32.0661Z" fill="#790D0D"/>
<path d="M27.5435 36.0902C27.5435 37.4552 26.7135 38.0828 25.6896 37.4916C24.6659 36.9004 23.8359 35.3146 23.8359 33.9496C23.8359 32.5846 24.6659 31.957 25.6896 32.5482C26.7135 33.1393 27.5435 34.7251 27.5435 36.0902Z" fill="#AC3C3C"/>
<path d="M27.0806 35.8232C27.0806 36.8478 26.4577 37.3188 25.6892 36.875C24.9208 36.4313 24.2979 35.241 24.2979 34.2165C24.2979 33.1917 24.9208 32.7209 25.6892 33.1645C26.4577 33.6082 27.0806 34.7985 27.0806 35.8232Z" fill="#890F0F"/>
<path d="M20.8257 29.2425L29.3109 34.1415L35.0533 30.8239L26.5679 25.9248L20.8257 29.2425Z" fill="#D35454"/>
<path d="M33.4593 22.7177L27.0379 19.0091C26.4662 18.6567 25.7139 18.6726 24.8864 19.1504C23.1025 20.1803 21.6562 22.9437 21.6562 25.3222C21.6562 26.6208 22.0892 27.5324 22.771 27.9285L29.1341 31.6013C29.7175 32.033 30.5192 32.0449 31.4042 31.5339C33.1879 30.5039 34.6341 27.7408 34.6341 25.3621C34.6343 24.0245 34.1769 23.0933 33.4593 22.7177Z" fill="#DE6F6F"/>
<path d="M34.6357 25.3627C34.6357 27.7414 33.1895 30.5045 31.4055 31.5345C29.6215 32.5645 28.1753 31.4711 28.1753 29.0926C28.1753 26.7139 29.6215 23.9508 31.4055 22.9208C33.1895 21.8908 34.6357 22.9842 34.6357 25.3627Z" fill="#D35454"/>
<path d="M33.8541 26.1047C33.8541 27.7249 32.8691 29.6068 31.6541 30.3082C30.4391 31.0097 29.4541 30.2651 29.4541 28.6452C29.4541 27.0251 30.4391 25.1432 31.6541 24.4417C32.8691 23.7403 33.8541 24.4848 33.8541 26.1047Z" fill="#AC3C3C"/>
<path d="M30.3149 30.4741L30.3203 30.4771L30.3206 30.4768C30.3188 30.4758 30.3169 30.4749 30.3149 30.4741Z" fill="#171C1F"/>
<path d="M20.8265 29.2427V19.5501L14.4478 15.8677V26.4037L20.8265 30.0863L29.3117 34.9853V34.1416L20.8265 29.2427Z" fill="#D35454"/>
<path d="M20.0926 10.9594L19.6924 10.7238C18.7031 10.141 17.4759 10.1389 16.4844 10.7181C15.4176 11.3413 14.5287 12.2279 13.9026 13.2929L12.9106 14.9802L20.9089 19.5976L28.0906 15.5768L20.0926 10.9594Z" fill="#DE6F6F"/>
<path d="M20.9097 19.5978L28.0916 15.5771L27.6917 15.3414C26.7023 14.7586 25.475 14.7565 24.4835 15.3358C23.4169 15.959 22.5279 16.8456 21.9016 17.9106L20.9097 19.5978Z" fill="#C74F4F"/>
<path d="M15.6631 28.7382L16.207 28.4243C16.2589 28.3217 16.3196 28.2317 16.388 28.1539C16.0308 28.0735 15.6614 28.3418 15.6631 28.7382Z" fill="#682302"/>
<path d="M29.3101 36.6182L35.0525 33.3028V31.6699L29.3101 34.9853V36.6182Z" fill="#AC3C3C"/>
<path d="M15.2446 17.0708L20.101 19.8747V23.5764L15.2446 20.7725V17.0708Z" fill="white"/>
<path d="M30.0836 20.5919C29.4585 20.2523 28.6717 20.3205 27.8683 20.7844C26.4275 21.6163 25.1508 23.6036 24.721 25.6613L21.7746 23.9604C21.7072 23.9213 21.6205 23.9445 21.5814 24.0121C21.5425 24.0797 21.5655 24.1661 21.6333 24.2053L28.168 27.9781C28.1904 27.991 28.2146 27.9971 28.2385 27.9971C28.2875 27.9971 28.335 27.9718 28.3611 27.9264C28.4003 27.8588 28.377 27.7722 28.3094 27.7332L24.9796 25.8107C25.3747 23.7941 26.6125 21.8362 28.0098 21.0295C28.7246 20.6166 29.4133 20.5496 29.9486 20.8403C30.0172 20.8776 30.103 20.8522 30.1403 20.7836C30.1777 20.715 30.1522 20.6292 30.0836 20.5919Z" fill="#D35454"/>
<path d="M31.091 34.5024C31.091 35.0237 30.7741 35.6293 30.3832 35.8551C29.9921 36.0809 29.6753 35.8413 29.6753 35.32C29.6753 34.7985 29.9921 34.1931 30.3832 33.9673C30.7741 33.7415 31.091 33.9811 31.091 34.5024Z" fill="white"/>
<path d="M34.8211 32.29C34.8211 32.8113 34.5043 33.4169 34.1132 33.6427C33.7223 33.8685 33.4053 33.6289 33.4053 33.1076C33.4053 32.5861 33.7223 31.9807 34.1132 31.7549C34.5041 31.5291 34.8211 31.7687 34.8211 32.29Z" fill="white"/>
<path d="M15.8339 21.1127L15.2446 20.7725V17.0708L15.8339 17.4111V21.1127Z" fill="#A63737"/>
<path d="M20.101 23.5761V22.9337L15.8339 20.4702L15.2446 20.7722L20.101 23.5761Z" fill="#A63737"/>
<path d="M31.9491 18.5475C31.9275 18.3108 31.7725 18.0876 31.4778 17.9174C30.7751 17.5117 29.5476 17.5627 28.7363 18.0311C28.2616 18.305 28.035 18.6612 28.0687 18.991L28.0649 18.9914V19.937H28.0656C28.0693 20.1913 28.225 20.4334 28.5393 20.6148C28.5906 20.6443 28.645 20.6713 28.7015 20.696V22.0876C28.6877 22.2726 28.7917 22.4511 29.0194 22.5825C29.4925 22.8558 30.3189 22.8215 30.8653 22.5062C31.1738 22.3279 31.3269 22.0983 31.3167 21.883V20.4796C31.7346 20.2279 31.9497 19.9113 31.9518 19.6102H31.9522V18.5471L31.9491 18.5475Z" fill="#6A0707"/>
<path d="M31.9491 18.5478C31.979 18.8755 31.7524 19.2285 31.2809 19.5006C30.4696 19.9691 29.242 20.0199 28.5393 19.6142C28.2476 19.4457 28.0928 19.2252 28.0687 18.9912L28.0649 18.9916V19.9375L28.0656 19.9373C28.0693 20.1915 28.225 20.4337 28.5393 20.6151C29.242 21.0209 30.4696 20.97 31.2809 20.5015C31.7227 20.2464 31.9497 19.9201 31.9516 19.6104H31.9522V18.5474L31.9491 18.5478Z" fill="#DE6F6F"/>
<path d="M31.2808 19.5003C30.4695 19.9688 29.242 20.0197 28.5393 19.6139C27.8366 19.2084 27.9249 18.4996 28.7362 18.0311C29.5477 17.5627 30.775 17.5117 31.4777 17.9174C32.1805 18.3232 32.0924 19.032 31.2808 19.5003Z" fill="#AC3C3C"/>
<path d="M30.8661 19.2604C30.3199 19.5759 29.4933 19.6103 29.0201 19.337C28.547 19.0637 28.6062 18.5865 29.1526 18.2712C29.699 17.9558 30.5256 17.9215 30.9987 18.1946C31.4719 18.4679 31.4124 18.945 30.8661 19.2604Z" fill="#6A0707"/>
</g>
<defs>
<clipPath id="clip0_3_29501">
<rect width="27.4286" height="27.4286" fill="white" transform="translate(10.2852 10.2852)"/>
</clipPath>
</defs>
</svg>
