<svg width="48" height="48" viewBox="0 0 48 48" fill="none" xmlns="http://www.w3.org/2000/svg">
<circle cx="24" cy="24" r="24" fill="#FFF1F1"/>
<g clip-path="url(#clip0_3_29710)">
<path d="M27.6394 20.7159C35.4477 20.7159 34.8708 20.7143 34.9911 20.7189C34.9204 20.4492 34.7801 20.1941 34.569 19.9831L32.4283 17.8423C31.9657 17.3797 31.2555 17.2452 30.6609 17.5079C30.3416 17.6489 29.9611 17.5777 29.7141 17.3308C29.4672 17.0839 29.396 16.7034 29.537 16.3841C29.7996 15.7896 29.6652 15.0793 29.2025 14.6166L27.0618 12.4759C26.4273 11.8414 25.3949 11.8414 24.7603 12.4759L22.082 15.1542C22.8368 15.9095 26.8866 19.9625 27.6394 20.7159Z" fill="#AC3C3C"/>
<path d="M21.0839 16.1523L16.5205 20.7158H25.643C25.6265 20.6992 25.2774 20.3497 21.0839 16.1523Z" fill="#AC3C3C"/>
<path d="M35.4865 28.2686C36.0926 28.0339 36.4998 27.4366 36.4998 26.7823V23.7548C36.4998 22.8575 35.7697 22.1274 34.8724 22.1274H31.5586V35.999H34.8724C35.7697 35.999 36.4998 35.2689 36.4998 34.3716V31.3442C36.4998 30.6899 36.0926 30.0926 35.4865 29.8579C35.161 29.7318 34.9423 29.4124 34.9423 29.0632C34.9423 28.714 35.161 28.3946 35.4865 28.2686Z" fill="#F89696"/>
<path d="M12.5 23.7548V26.7823C12.5 27.4366 12.9072 28.0339 13.5132 28.2685C13.8388 28.3946 14.0575 28.714 14.0575 29.0632C14.0575 29.4124 13.8387 29.7318 13.5132 29.8579C12.9072 30.0926 12.5 30.6899 12.5 31.3442V34.3716C12.5 35.2689 13.2301 35.999 14.1274 35.999H30.1471V22.1274H14.1274C13.2301 22.1274 12.5 22.8575 12.5 23.7548ZM17.4412 25.4108H28.0294V26.8225H17.4412V25.4108ZM17.4412 28.2343H28.0294V29.6461H17.4412V28.2343ZM17.4412 31.0578H28.0294V32.4696H17.4412V31.0578Z" fill="#F89696"/>
</g>
<defs>
<clipPath id="clip0_3_29710">
<rect width="24" height="24" fill="white" transform="translate(12.5 11.9995)"/>
</clipPath>
</defs>
</svg>
