<svg width="48" height="48" viewBox="0 0 48 48" fill="none" xmlns="http://www.w3.org/2000/svg">
<circle cx="24" cy="24" r="24" fill="#FFF1F1"/>
<path d="M15 13.25C14.4033 13.25 13.831 13.4871 13.409 13.909C12.9871 14.331 12.75 14.9033 12.75 15.5V20C12.7526 20.1981 12.8324 20.3874 12.9725 20.5275C13.1126 20.6676 13.3019 20.7474 13.5 20.75H16.5C16.6981 20.7474 16.8874 20.6676 17.0275 20.5275C17.1676 20.3874 17.2474 20.1981 17.25 20V15.5C17.25 14.9033 17.0129 14.331 16.591 13.909C16.169 13.4871 15.5967 13.25 15 13.25Z" fill="#AC3C3C"/>
<path d="M15 13.25H17.5V15.25H15V13.25Z" fill="#AC3C3C"/>
<path d="M31.2501 18V34C31.2475 34.1981 31.1677 34.3874 31.0276 34.5275C30.8875 34.6676 30.6982 34.7474 30.5001 34.75H20.0001C19.139 34.7474 18.3138 34.4041 17.7049 33.7952C17.096 33.1863 16.7527 32.3612 16.7501 31.5V14.87C16.751 14.4787 16.6094 14.1005 16.3518 13.8061C16.0941 13.5116 15.738 13.3211 15.3501 13.27H15.5001H26.5001C27.7564 13.27 28.9616 13.7677 29.8518 14.6542C30.742 15.5407 31.2448 16.7437 31.2501 18Z" fill="#F89696"/>
<path d="M27 18.75H21C20.8011 18.75 20.6103 18.671 20.4697 18.5303C20.329 18.3897 20.25 18.1989 20.25 18C20.25 17.8011 20.329 17.6103 20.4697 17.4697C20.6103 17.329 20.8011 17.25 21 17.25H27C27.1989 17.25 27.3897 17.329 27.5303 17.4697C27.671 17.6103 27.75 17.8011 27.75 18C27.75 18.1989 27.671 18.3897 27.5303 18.5303C27.3897 18.671 27.1989 18.75 27 18.75Z" fill="white"/>
<path d="M24 25.75H21C20.8011 25.75 20.6103 25.671 20.4697 25.5303C20.329 25.3897 20.25 25.1989 20.25 25C20.25 24.8011 20.329 24.6103 20.4697 24.4697C20.6103 24.329 20.8011 24.25 21 24.25H24C24.1989 24.25 24.3897 24.329 24.5303 24.4697C24.671 24.6103 24.75 24.8011 24.75 25C24.75 25.1989 24.671 25.3897 24.5303 25.5303C24.3897 25.671 24.1989 25.75 24 25.75Z" fill="white"/>
<path d="M27 22.25H21C20.8011 22.25 20.6103 22.171 20.4697 22.0303C20.329 21.8897 20.25 21.6989 20.25 21.5C20.25 21.3011 20.329 21.1103 20.4697 20.9697C20.6103 20.829 20.8011 20.75 21 20.75H27C27.1989 20.75 27.3897 20.829 27.5303 20.9697C27.671 21.1103 27.75 21.3011 27.75 21.5C27.75 21.6989 27.671 21.8897 27.5303 22.0303C27.3897 22.171 27.1989 22.25 27 22.25Z" fill="white"/>
<path d="M34.2502 29.5V31.5C34.2475 32.3611 33.9043 33.1863 33.2953 33.7952C32.6864 34.4041 31.8613 34.7474 31.0002 34.75H20.4102C20.795 34.6465 21.135 34.4189 21.3772 34.1025C21.6195 33.7861 21.7506 33.3985 21.7502 33V29.5C21.7502 29.1685 21.8819 28.8505 22.1163 28.6161C22.3507 28.3817 22.6686 28.25 23.0002 28.25H33.0002C33.3317 28.25 33.6496 28.3817 33.884 28.6161C34.1185 28.8505 34.2502 29.1685 34.2502 29.5Z" fill="#AC3C3C"/>
</svg>
