<svg width="48" height="48" viewBox="0 0 48 48" fill="none" xmlns="http://www.w3.org/2000/svg">
<circle cx="24" cy="24" r="24" fill="#F4F4F4"/>
<path d="M35.3788 20.8799L35.3367 35.8914C35.3367 36.4519 34.9723 36.9987 34.2435 37.4333C32.7718 38.2744 30.389 38.2744 28.9032 37.4189L14.7187 29.2336C13.9758 28.799 13.6113 28.2385 13.6113 27.678L13.6534 12.6802C13.6534 13.227 14.0179 13.8012 14.7607 14.2221L28.9452 22.4218C30.431 23.2766 32.8138 23.2766 34.2855 22.4218C35.0143 22.0009 35.3788 21.4404 35.3788 20.8799Z" fill="#AC3C3C"/>
<path d="M14.4516 14.0052C13.9276 13.6138 13.6534 13.1402 13.6534 12.6802L13.6113 27.6779C13.6113 28.1618 13.9001 28.6403 14.4516 29.0428V14.0052Z" fill="#840909"/>
<path d="M34.2863 22.4217C33.0879 23.1181 31.2917 23.237 29.8613 22.7994V37.8097C31.2849 38.2327 33.0576 38.1114 34.2444 37.4331C34.9732 36.9989 35.3376 36.4516 35.3376 35.8912L35.3797 20.8799C35.3797 21.4403 35.0152 22.0007 34.2863 22.4217Z" fill="#840909"/>
<path d="M28.3636 25.0833C28.5812 25.2089 28.7572 25.5113 28.7565 25.7613C28.7558 26.0114 28.5787 26.11 28.3611 25.9844L26.9632 25.1773C26.7456 25.0516 26.5696 24.7492 26.5703 24.4991C26.571 24.2491 26.7481 24.1506 26.9657 24.2762L28.3636 25.0833Z" fill="white"/>
<path d="M14.7196 16.3991L28.9042 24.5844C30.3899 25.4399 32.7727 25.4399 34.2444 24.5995C34.9733 24.1642 35.3376 23.618 35.3376 23.0568L35.3464 21.0838C35.2683 21.5745 34.9264 22.0523 34.2864 22.4218C32.8147 23.2766 30.4319 23.2766 28.9462 22.4218L14.7616 14.2221C14.0188 13.8012 13.6544 13.227 13.6544 12.6802L13.6445 15.0405C13.7204 15.534 14.0641 16.0158 14.7196 16.3991Z" fill="#DE6F6F"/>
<path d="M14.7196 29.2335L28.9042 37.4189C30.3899 38.2744 32.7727 38.2744 34.2444 37.4339C34.9733 36.9987 35.3376 36.4525 35.3376 35.8913L35.3464 33.9183C35.2683 34.409 34.9264 34.8867 34.2864 35.2563C32.8147 36.1111 30.4319 36.1111 28.9462 35.2563L14.7616 27.0566C14.0188 26.6357 13.6544 26.0615 13.6544 25.5146L13.6445 27.875C13.7204 28.3685 14.0641 28.8503 14.7196 29.2335Z" fill="#DE6F6F"/>
<path d="M34.2652 19.3285C35.7436 20.182 35.7512 21.5656 34.2825 22.4191C32.8182 23.2701 30.4299 23.27 28.9515 22.4165L14.7688 14.2281C13.2904 13.3745 13.2825 11.9912 14.7469 11.1402C16.2156 10.2867 18.6041 10.2866 20.0825 11.1401L34.2652 19.3285Z" fill="#F89696"/>
<path d="M15.0987 12.1689C15.6955 11.8223 16.5387 11.6238 17.4106 11.6238C18.2853 11.6238 19.1312 11.8228 19.7321 12.17L33.9154 20.3587C34.2954 20.5781 34.5432 20.837 34.635 21.0932C34.6609 21.0215 34.6792 20.9504 34.6792 20.8803C34.6792 20.5599 34.4 20.2153 33.9154 19.9356L19.7321 11.7474C19.1312 11.4002 18.2853 11.2012 17.4106 11.2012C16.5387 11.2012 15.6955 11.3996 15.0987 11.7458C14.6265 12.0207 14.3555 12.3599 14.3555 12.6761C14.3555 12.7451 14.3745 12.8157 14.3996 12.8858C14.4905 12.6354 14.7312 12.3829 15.0987 12.1689Z" fill="#DE6F6F"/>
<path d="M15.1191 13.6216L29.3024 21.8098C29.9047 22.157 30.7506 22.3565 31.6253 22.3565C32.4972 22.3565 33.3376 22.1586 33.9316 21.8135C34.3016 21.5979 34.5436 21.3444 34.6348 21.0935C34.543 20.8372 34.2952 20.5783 33.9152 20.3589L19.7319 12.1702C19.131 11.823 18.2851 11.624 17.4104 11.624C16.5385 11.624 15.6953 11.8225 15.0985 12.1692C14.731 12.3831 14.4904 12.6356 14.3994 12.886C14.4911 13.1428 14.7389 13.4023 15.1191 13.6216Z" fill="#AC3C3C"/>
<path d="M26.3814 28.4969C26.3778 29.7796 25.9253 30.6818 25.1952 31.106L23.9384 31.8356C24.6686 31.4113 25.121 30.5092 25.1246 29.2265C25.1319 26.6456 23.3176 23.5012 21.0717 22.2049C19.941 21.5521 18.9169 21.492 18.1768 21.9217L19.4335 21.1913C20.1728 20.7616 21.1978 20.8225 22.3276 21.4753C24.5735 22.7716 26.3887 25.9151 26.3814 28.4969Z" fill="#840909"/>
<path d="M21.0681 22.2049C23.314 23.5016 25.129 26.6454 25.1217 29.2268C25.1144 31.8082 23.2875 32.8493 21.0416 31.5526C18.7951 30.2556 16.98 27.1118 16.9873 24.5304C16.9946 21.949 18.8216 20.9079 21.0681 22.2049Z" fill="#630808"/>
<path d="M22.7636 30.801L19.3806 32.7673C18.9822 32.9985 18.4726 33.04 17.9039 32.8632C17.6815 32.7944 17.4495 32.6921 17.2119 32.5544C15.528 31.5825 14.1673 29.2258 14.1729 27.2915C14.1737 27.0492 14.1953 26.8252 14.2369 26.6204C14.2745 26.4332 14.3289 26.262 14.3969 26.1076C14.4033 26.0932 14.4097 26.0796 14.4169 26.066C14.5624 25.7548 14.7696 25.5172 15.0248 25.3589C16.152 24.7029 17.2799 24.0477 18.4078 23.3926C18.1526 23.551 17.9455 23.7894 17.7991 24.0997C17.7927 24.1133 17.7863 24.1277 17.7799 24.1421C17.7119 24.2957 17.6575 24.4677 17.6199 24.6549C17.5783 24.8597 17.5567 25.0837 17.5559 25.3252C17.5503 27.2595 18.9102 29.6162 20.5941 30.589C20.8325 30.7265 21.0637 30.8281 21.2861 30.8977C21.8556 31.0745 22.3644 31.0329 22.7636 30.801Z" fill="#840909"/>
<path d="M17.6621 25.1014C19.3455 26.0733 20.7063 28.4297 20.7008 30.3646C20.6953 32.299 19.3256 33.0795 17.6422 32.1076C15.9583 31.1354 14.598 28.7788 14.6035 26.8444C14.609 24.9094 15.9782 24.1292 17.6621 25.1014Z" fill="#AC3C3C"/>
<path d="M24.1797 29.1489C24.1765 30.2761 23.7789 31.0688 23.1373 31.4416L19.7543 33.4071C20.3959 33.0343 20.7935 32.2416 20.7967 31.1144C20.8031 28.8465 19.2088 26.0835 17.2353 24.9444C16.2417 24.3708 15.3418 24.318 14.6914 24.6956L18.0744 22.7293C18.724 22.3517 19.6247 22.4053 20.6175 22.9789C22.591 24.118 24.1861 26.8802 24.1797 29.1489Z" fill="#840909"/>
<path d="M17.2343 24.9444C19.2078 26.0838 20.8028 28.8464 20.7963 31.1147C20.7899 33.383 19.1845 34.2978 17.211 33.1584C15.237 32.0187 13.642 29.2561 13.6485 26.9879C13.6549 24.7195 15.2603 23.8047 17.2343 24.9444ZM17.2127 32.5545C18.8961 33.5264 20.2658 32.7459 20.2713 30.8115C20.2768 28.8766 18.916 26.5202 17.2326 25.5483C15.5487 24.5761 14.1795 25.3563 14.174 27.2913C14.1685 29.2257 15.5288 31.5823 17.2127 32.5545Z" fill="#630808"/>
<path d="M18.7434 28.2505C18.9143 28.3492 19.0522 28.588 19.0516 28.7844C19.0511 28.9807 18.9123 29.0605 18.7414 28.9618C18.5705 28.8632 18.4321 28.6234 18.4326 28.427C18.4332 28.2306 18.5725 28.1519 18.7434 28.2505Z" fill="#FDDBDB"/>
<path d="M17.9037 26.7775C18.1978 26.9473 18.4353 27.3587 18.4344 27.6959C18.4334 28.0339 18.1943 28.1701 17.9002 28.0003C17.6067 27.8309 17.3692 27.4195 17.3701 27.0815C17.3711 26.7442 17.6102 26.608 17.9037 26.7775Z" fill="#FDDBDB"/>
<path d="M17.6553 26.2288C18.7974 26.8882 19.7203 28.4867 19.7166 29.7984C19.7128 31.1108 18.7839 31.6402 17.6418 30.9808C16.5002 30.3217 15.5773 28.7232 15.5811 27.4108C15.5848 26.0991 16.5137 25.5697 17.6553 26.2288ZM17.9 28.0004C18.1941 28.1702 18.4332 28.0339 18.4341 27.696C18.4351 27.3587 18.1976 26.9473 17.9035 26.7775C17.6099 26.608 17.3709 26.7443 17.3699 27.0815C17.3689 27.4195 17.6065 27.8309 17.9 28.0004ZM18.7379 28.9618C18.9088 29.0605 19.0476 28.9807 19.0482 28.7844C19.0487 28.588 18.9108 28.3492 18.74 28.2505C18.5691 28.1519 18.4297 28.2306 18.4292 28.427C18.4286 28.6233 18.5671 28.8631 18.7379 28.9618Z" fill="white"/>
<path d="M19.1447 12.4908C18.4015 12.0617 17.2007 12.0617 16.4623 12.4908C15.7241 12.9198 15.7278 13.6154 16.4711 14.0445C17.2141 14.4735 18.4152 14.4735 19.1534 14.0445C19.8918 13.6154 19.8878 12.9198 19.1447 12.4908Z" fill="#840909"/>
<path d="M19.0943 12.2978L19.0943 13.2713C19.0937 13.4601 18.9697 13.6486 18.7217 13.7927C18.2228 14.0826 17.411 14.0826 16.9087 13.7927C16.656 13.6467 16.5297 13.4552 16.5303 13.2639L16.5303 12.2905C16.5297 12.4818 16.656 12.6733 16.9087 12.8193C17.411 13.1092 18.2228 13.1092 18.7217 12.8193C18.9697 12.6752 19.0937 12.4866 19.0943 12.2978Z" fill="#DE6F6F"/>
<path d="M18.7148 11.7693C18.2125 11.4793 17.4009 11.4793 16.9018 11.7693C16.4029 12.0593 16.4054 12.5294 16.9077 12.8194C17.41 13.1094 18.2218 13.1094 18.7208 12.8194C19.2198 12.5294 19.2171 12.0592 18.7148 11.7693Z" fill="#F89696"/>
</svg>
