<svg width="48" height="48" viewBox="0 0 48 48" fill="none" xmlns="http://www.w3.org/2000/svg">
<circle cx="24" cy="24" r="24" fill="#FFF1F1"/>
<g clip-path="url(#clip0_3_29738)">
<path d="M15.416 19.0308L16.6614 34.0652C16.7507 35.1494 17.6742 35.9995 18.7626 35.9995H30.2378C31.3261 35.9995 32.2497 35.1494 32.3389 34.0652L33.5843 19.0308H15.416ZM20.9839 33.187C20.6158 33.187 20.3062 32.9007 20.2828 32.5278L19.5797 21.1841C19.5556 20.7961 19.8502 20.4624 20.2375 20.4384C20.6392 20.4102 20.9585 20.7082 20.9832 21.0962L21.6863 32.4399C21.7112 32.8416 21.3933 33.187 20.9839 33.187ZM25.2033 32.4839C25.2033 32.8725 24.8888 33.187 24.5002 33.187C24.1115 33.187 23.797 32.8725 23.797 32.4839V21.1401C23.797 20.7515 24.1115 20.437 24.5002 20.437C24.8888 20.437 25.2033 20.7515 25.2033 21.1401V32.4839ZM29.4206 21.1841L28.7175 32.5279C28.6944 32.8969 28.3867 33.2045 27.9718 33.1857C27.5845 33.1616 27.29 32.8279 27.314 32.44L28.0171 21.0962C28.0412 20.7083 28.3811 20.426 28.7628 20.4384C29.1501 20.4625 29.4447 20.7962 29.4206 21.1841Z" fill="#AC3C3C"/>
<path d="M33.6406 14.812H29.4219V14.1089C29.4219 12.9457 28.4757 11.9995 27.3125 11.9995H21.6875C20.5243 11.9995 19.5781 12.9457 19.5781 14.1089V14.812H15.3594C14.5827 14.812 13.9531 15.4416 13.9531 16.2183C13.9531 16.9948 14.5827 17.6245 15.3594 17.6245C21.8265 17.6245 27.1737 17.6245 33.6406 17.6245C34.4173 17.6245 35.0469 16.9948 35.0469 16.2183C35.0469 15.4416 34.4173 14.812 33.6406 14.812ZM28.0156 14.812H20.9844V14.1089C20.9844 13.7209 21.2996 13.4058 21.6875 13.4058H27.3125C27.7004 13.4058 28.0156 13.7209 28.0156 14.1089V14.812Z" fill="#DE6F6F"/>
</g>
<defs>
<clipPath id="clip0_3_29738">
<rect width="24" height="24" fill="white" transform="translate(12.5 11.9995)"/>
</clipPath>
</defs>
</svg>
