<svg width="20" height="21" viewBox="0 0 20 21" fill="none" xmlns="http://www.w3.org/2000/svg">
<path d="M12.5 7.375H18.75V6.125C18.75 5.2962 18.4208 4.50134 17.8347 3.91529C17.2487 3.32924 16.4538 3 15.625 3H4.375C3.5462 3 2.75134 3.32924 2.16529 3.91529C1.57924 4.50134 1.25 5.2962 1.25 6.125V14.875C1.25 15.7038 1.57924 16.4987 2.16529 17.0847C2.75134 17.6708 3.5462 18 4.375 18H15.625C16.4538 18 17.2487 17.6708 17.8347 17.0847C18.4208 16.4987 18.75 15.7038 18.75 14.875V13.625H12.5C11.6712 13.625 10.8763 13.2958 10.2903 12.7097C9.70424 12.1237 9.375 11.3288 9.375 10.5C9.375 9.6712 9.70424 8.87634 10.2903 8.29029C10.8763 7.70424 11.6712 7.375 12.5 7.375ZM12.5 8.625C12.0027 8.625 11.5258 8.82254 11.1742 9.17417C10.8225 9.52581 10.625 10.0027 10.625 10.5C10.625 10.9973 10.8225 11.4742 11.1742 11.8258C11.5258 12.1775 12.0027 12.375 12.5 12.375H18.75V8.625H12.5ZM12.5 11.75C12.2528 11.75 12.0111 11.6767 11.8055 11.5393C11.6 11.402 11.4398 11.2068 11.3451 10.9784C11.2505 10.7499 11.2258 10.4986 11.274 10.2561C11.3222 10.0137 11.4413 9.79093 11.6161 9.61612C11.7909 9.4413 12.0137 9.32225 12.2561 9.27402C12.4986 9.22579 12.7499 9.25054 12.9784 9.34515C13.2068 9.43976 13.402 9.59998 13.5393 9.80554C13.6767 10.0111 13.75 10.2528 13.75 10.5C13.75 10.8315 13.6183 11.1495 13.3839 11.3839C13.1495 11.6183 12.8315 11.75 12.5 11.75Z" fill="#FF8F00"/>
<path d="M18.7504 6.125V7.375H16.8754C16.7082 6.51657 16.4221 5.68565 16.0254 4.90625C15.6833 4.23464 15.2638 3.60536 14.7754 3.03125H15.6254C16.4488 3.03121 17.239 3.35616 17.8241 3.93547C18.4093 4.51477 18.7422 5.30163 18.7504 6.125Z" fill="#FF6F00"/>
<path d="M17.0436 8.625H18.7498V12.375H16.5186C16.9429 11.1728 17.1215 9.89755 17.0436 8.625Z" fill="#FF6F00"/>
<path d="M15.9689 13.625H18.7502V14.875C18.7502 15.7038 18.421 16.4987 17.8349 17.0847C17.2489 17.6708 16.454 18 15.6252 18H11.1689C11.4002 17.9062 11.6314 17.8 11.8564 17.6875C13.6187 16.7972 15.0571 15.3763 15.9689 13.625Z" fill="#FF6F00"/>
</svg>
